# xmcd
#
# Track frame offsets:
#	150
#	1329
#	10440
#	26425
#	40425
#	50625
#	60035
#	74640
#	82650
#	93100
#	105475
#	115890
#	128865
#	140425
#	149435
#	160275
#	169600
#	176390
#
# Disc length: 2483 seconds
#
# Revision: 1
# Processed by: cddbd v1.5PL3 Copyright (c) Steve Scherf et al.
# Submitted via: audiograbber 1.83.01
#
DISCID=e409b112
DTITLE=Jon Rauhouse - Steel Guitar Rodeo
DYEAR=2003
DGENRE=Instrumental
TTITLE0=Introduction
TTITLE1=Widowmaker
TTITLE2=Smoke Rings
TTITLE3=Powerhouse
TTITLE4=River of No Return
TTITLE5=Ropin' the Goat
TTITLE6=Wishin'
TTITLE7=Roaches to Room Service
TTITLE8=Hamma Hamma Hula
TTITLE9=(There'll Be Bluesbirds Over) The White Cliffs of Dover
TTITLE10=Perry Mason Theme
TTITLE11=Indian Love Call
TTITLE12=Prisoner of Love
TTITLE13=Jennifer's Breakdown
TTITLE14=Work Work
TTITLE15=Swingin' Elephant Graveyard
TTITLE16=Corn and Coffee
TTITLE17=Moa Lei'a'i
EXTD=
EXTT0=
EXTT1=
EXTT2=
EXTT3=
EXTT4=
EXTT5=
EXTT6=
EXTT7=
EXTT8=
EXTT9=
EXTT10=
EXTT11=
EXTT12=
EXTT13=
EXTT14=
EXTT15=
EXTT16=
EXTT17=
PLAYORDER=
